<svg xmlns="http://www.w3.org/2000/svg" xmlns:osb="http://www.openswatchbook.org/uri/2009/osb" xmlns:svg="http://www.w3.org/2000/svg" id="svg7384" width="14" height="14" version="1.1"><metadata id="metadata90"/><title id="title9167">Gnome Symbolic Icon Theme</title><defs id="defs7386"><linearGradient id="linearGradient19282" gradientTransform="matrix(-2.7365795,0.28202934,-0.18908311,-0.99988321,239.54008,-879.45557)" osb:paint="solid"><stop id="stop19284" offset="0" style="stop-color:#666;stop-opacity:1"/></linearGradient></defs><g id="layer9" style="display:inline;opacity:1" transform="translate(-401.00015,-339)"><path id="path39" d="m 413.24321,344.17712 -6.20785,5.63776 C 406.91169,349.93829 406.72617,350 406.57158,350 c -0.18552,0 -0.34011,-0.0617 -0.46378,-0.18512 l -3.35071,-3.35205 c -0.12368,-0.12341 -0.18551,-0.30857 -0.18551,-0.46283 0,-0.15426 0.0618,-0.33943 0.18551,-0.46283 l 1.06499,-1.06634 c 0.12368,-0.12341 0.30919,-0.18512 0.46379,-0.18512 0.18551,0 0.3401,0.0617 0.46378,0.18512 l 1.82193,2.1006 4.67907,-4.38631 C 411.37433,342.06171 411.55984,342 411.71444,342 c 0.18551,0 0.3401,0.0617 0.46378,0.18512 l 1.06499,1.06634 c 0.12367,0.12341 0.18551,0.30857 0.18551,0.46283 0,0.15425 -0.0618,0.33942 -0.18551,0.46283 z" class="st2" style="opacity:1;fill:#bebebe;fill-opacity:1;stroke-width:.3088713"/></g></svg>