<svg xmlns="http://www.w3.org/2000/svg" version="1.1" viewBox="0 0 88 88"><metadata/><g fill="#333" transform="translate(0 -964.36)"><rect width="2" height="2" x="86" y="1050.4" opacity=".18" rx="0" ry="0"/><rect width="2" height="2" x="20" y="1006.4" opacity=".06" rx="0" ry="0"/><rect width="2" height="2" x="20" y="984.36" opacity=".06" rx="0" ry="0"/><rect width="2" height="2" x="42" y="984.36" opacity=".06" rx="0" ry="0"/><rect width="2" height="2" x="42" y="1028.4" opacity=".06" rx="0" ry="0"/><rect width="2" height="2" x="42" y="1006.4" opacity=".06" rx="0" ry="0"/><rect width="2" height="2" x="64" y="1006.4" opacity=".06" rx="0" ry="0"/><rect width="2" height="2" x="64" y="984.36" opacity=".06" rx="0" ry="0"/><rect width="2" height="2" x="20" y="1028.4" opacity=".06" rx="0" ry="0"/><rect width="2" height="2" x="64" y="1050.4" opacity=".06" rx="0" ry="0"/><rect width="2" height="2" x="64" y="1028.4" opacity=".06" rx="0" ry="0"/><rect width="2" height="2" x="86" y="1028.4" opacity=".06" rx="0" ry="0"/><rect width="2" height="2" x="42" y="1050.4" opacity=".06" rx="0" ry="0"/><rect width="2" height="2" x="20" y="1050.4" opacity=".06" rx="0" ry="0"/><rect width="2" height="2" x="86" y="1006.4" opacity=".06" rx="0" ry="0"/><rect width="2" height="2" x="86" y="984.36" opacity=".06" rx="0" ry="0"/></g></svg>