<svg xmlns="http://www.w3.org/2000/svg" xmlns:osb="http://www.openswatchbook.org/uri/2009/osb" xmlns:svg="http://www.w3.org/2000/svg" id="svg7384" height="16" style="enable-background:new" width="15.982" version="1.1"><metadata id="metadata90"/><title id="title8473">Paper Symbolic Icon Theme</title><defs id="defs7386"><linearGradient id="linearGradient5606" osb:paint="solid"><stop id="stop5608" offset="0" style="stop-color:#000;stop-opacity:1"/></linearGradient><filter id="filter7554" style="color-interpolation-filters:sRGB"><feBlend id="feBlend7556" in2="BackgroundImage" mode="darken"/></filter></defs><g id="layer12" style="display:inline" transform="translate(-265.00059,19.00334)"><path id="path10424" d="m 267.0002,-17 c -1,0 -1,1 -1,1 l 0,4 2,0 0,-3 3,0 0,-2 z m 8,0 0,2 3,0 0,3 2,0 0,-4 c 0,-1 -1,-1 -1,-1 z m -9,7 0,4 c 0,1 1,1 1,1 l 4,0 0,-2 -3,0 0,-3 z m 12,0 0,3 -3,0 0,2 4,0 c 0,0 1,0 1,-1 l 0,-4 z" style="color:#bebebe;fill:#1b1b1b;fill-opacity:1;stroke:none"/></g></svg>