<svg xmlns="http://www.w3.org/2000/svg" xmlns:osb="http://www.openswatchbook.org/uri/2009/osb" xmlns:svg="http://www.w3.org/2000/svg" xmlns:xlink="http://www.w3.org/1999/xlink" id="svg3199" width="22" height="22" version="1.1"><defs id="defs3201"><linearGradient id="linearGradient15404"><stop id="stop15406" offset="0" style="stop-color:#515151;stop-opacity:1"/><stop id="stop15408" offset="1" style="stop-color:#292929;stop-opacity:1"/></linearGradient><linearGradient id="linearGradient5891-0-4" x1="205.841" x2="206.748" y1="246.709" y2="231.241" gradientUnits="userSpaceOnUse" xlink:href="#linearGradient5872-5-1"/><linearGradient id="linearGradient5872-5-1"><stop style="stop-color:#0b2e52;stop-opacity:1" id="stop5874-4-4" offset="0"/><stop style="stop-color:#1862af;stop-opacity:1" id="stop5876-0-5" offset="1"/></linearGradient><linearGradient id="linearGradient14219" x1="-93.031" x2="-93.031" y1="-396.347" y2="-388.73" gradientTransform="matrix(1.5918367,0,0,0.85714285,-256.56122,59.685418)" gradientUnits="userSpaceOnUse" xlink:href="#linearGradient15404"/><linearGradient id="linearGradient10013-4-63-6"><stop style="stop-color:#333;stop-opacity:1" id="stop10015-2-76-1" offset="0"/><stop style="stop-color:#292929;stop-opacity:1" id="stop10017-46-15-8" offset="1"/></linearGradient><linearGradient id="linearGradient10597-5"><stop style="stop-color:#16191a;stop-opacity:1" id="stop10599-2" offset="0"/><stop style="stop-color:#2b3133;stop-opacity:1" id="stop10601-5" offset="1"/></linearGradient><linearGradient id="linearGradient15374" x1="921.328" x2="921.225" y1="-330.051" y2="-322.164" gradientTransform="matrix(1.5918367,0,0,0.85714285,-1456.5464,275.45191)" gradientUnits="userSpaceOnUse" xlink:href="#linearGradient10013-4-63-6"/><linearGradient id="linearGradient15376" x1="1203.918" x2="1203.918" y1="-217.567" y2="-227.08" gradientTransform="translate(-1199.9852,216.38048)" gradientUnits="userSpaceOnUse" xlink:href="#linearGradient10597-5"/><linearGradient id="linearGradient5581-5-2-4-6-8-7-35-8"><stop id="stop5583-0-92-8-0-7-6-5-1" offset="0" style="stop-color:#454c4c;stop-opacity:1"/><stop style="stop-color:#393f3f;stop-opacity:1" id="stop5585-4-7-2-7-9-9-92-0" offset=".4"/><stop id="stop5587-6-7-2-0-3-1-21-5" offset="1" style="stop-color:#2d3232;stop-opacity:1"/></linearGradient><linearGradient id="linearGradient19282" gradientTransform="matrix(-2.7365795,0.28202934,-0.18908311,-0.99988321,239.54008,-879.45557)" osb:paint="solid"><stop style="stop-color:#666;stop-opacity:1" id="stop19284" offset="0"/></linearGradient></defs><metadata id="metadata3204"/><g id="layer1" transform="translate(-342.5,-521.36218)"><rect style="opacity:1;fill:none;fill-opacity:1;stroke:#fff;stroke-width:1.99994004;stroke-miterlimit:4;stroke-dasharray:none;stroke-opacity:1" id="rect847" width="20" height="20" x="343.5" y="522.362" ry="4.001"/><g id="g879" transform="matrix(1.25,0,0,1.25,344.75,523.61218)" style="fill:#fff;fill-opacity:1"><g transform="translate(-401.00015,-339)" style="display:inline;opacity:1;fill:#fff;fill-opacity:1" id="layer9"><path style="opacity:1;fill:#fff;fill-opacity:1;stroke-width:.3088713" id="path39" d="m 413.24321,344.17712 -6.20785,5.63776 C 406.91169,349.93829 406.72617,350 406.57158,350 c -0.18552,0 -0.34011,-0.0617 -0.46378,-0.18512 l -3.35071,-3.35205 c -0.12368,-0.12341 -0.18551,-0.30857 -0.18551,-0.46283 0,-0.15426 0.0618,-0.33943 0.18551,-0.46283 l 1.06499,-1.06634 c 0.12368,-0.12341 0.30919,-0.18512 0.46379,-0.18512 0.18551,0 0.3401,0.0617 0.46378,0.18512 l 1.82193,2.1006 4.67907,-4.38631 C 411.37433,342.06171 411.55984,342 411.71444,342 c 0.18551,0 0.3401,0.0617 0.46378,0.18512 l 1.06499,1.06634 c 0.12367,0.12341 0.18551,0.30857 0.18551,0.46283 0,0.15425 -0.0618,0.33942 -0.18551,0.46283 z" class="st2"/></g></g></g></svg>