<svg xmlns="http://www.w3.org/2000/svg" xmlns:svg="http://www.w3.org/2000/svg" id="svg8" width="48" height="26" version="1.1" viewBox="0 0 12.7 6.879"><metadata id="metadata5"/><g id="layer1" transform="translate(0,-290.12082)"><rect style="opacity:1;fill:#1b1b1b;fill-opacity:1;stroke:none;stroke-width:.30235311;stroke-opacity:1" id="rect918" width="12.7" height="6.879" x="0" y="290.121" ry="3.44"/><rect id="rect815" width="12.7" height="6.879" x="0" y="290.121" ry="3.44" style="opacity:.25;fill:#fff;fill-opacity:1;stroke:none;stroke-width:.30235311;stroke-opacity:1"/><path style="opacity:1;fill:#1b1b1b;fill-opacity:1;stroke-width:.0817222" id="path39" d="m 4.940202,293.0781 -1.6424925,1.49166 c -0.032723,0.0327 -0.081807,0.049 -0.1227096,0.049 -0.049084,0 -0.089986,-0.0163 -0.1227092,-0.049 l -0.886541,-0.8869 c -0.032723,-0.0326 -0.049083,-0.0817 -0.049083,-0.12246 0,-0.0408 0.016362,-0.0898 0.049083,-0.12246 l 0.2817789,-0.28213 c 0.032723,-0.0326 0.081806,-0.049 0.1227094,-0.049 0.049084,0 0.089987,0.0163 0.1227093,0.049 l 0.4820526,0.55578 1.2380048,-1.16054 c 0.032722,-0.0327 0.081807,-0.049 0.1227095,-0.049 0.049085,0 0.089987,0.0163 0.1227093,0.049 l 0.2817785,0.28213 c 0.032722,0.0326 0.049084,0.0816 0.049084,0.12246 0,0.0408 -0.016362,0.0898 -0.049084,0.12246 z" class="st2"/><circle id="path817" cx="3.44" cy="293.56" r="2.381" style="opacity:1;fill:#1b1b1b;fill-opacity:1;stroke:none;stroke-width:.31562683;stroke-opacity:1"/></g></svg>