<svg xmlns="http://www.w3.org/2000/svg" xmlns:svg="http://www.w3.org/2000/svg" id="svg8" width="48" height="26" version="1.1" viewBox="0 0 12.7 6.879"><metadata id="metadata5"/><g id="layer1" transform="translate(0,-290.12082)"><rect style="opacity:1;fill:#1b1b1b;fill-opacity:1;stroke:none;stroke-width:.30235311;stroke-opacity:1" id="rect918" width="12.7" height="6.879" x="0" y="290.121" ry="3.44"/><rect id="rect815" width="12.7" height="6.879" x="0" y="290.121" ry="3.44" style="opacity:1;fill:#fff;fill-opacity:1;stroke:none;stroke-width:.30235311;stroke-opacity:1"/><path style="opacity:1;fill:#1b1b1b;fill-opacity:1;stroke-width:.08278181" id="path27" d="m 10.269023,294.36289 -0.212119,0.20624 c -0.03315,0.0331 -0.08289,0.0496 -0.1243344,0.0496 -0.04973,0 -0.09118,-0.0165 -0.124336,-0.0496 L 9.2604162,294.01397 8.70197,294.56913 c -0.033159,0.0331 -0.082891,0.0496 -0.124334,0.0496 -0.04973,0 -0.091181,-0.0165 -0.1243344,-0.0496 l -0.2014853,-0.20998 c -0.033155,-0.0331 -0.049733,-0.0827 -0.049733,-0.12401 0,-0.0413 0.016583,-0.0909 0.04973,-0.12401 l 0.5550324,-0.55073 -0.5550324,-0.55648 c -0.03315,-0.0331 -0.04973,-0.0827 -0.04973,-0.12401 0,-0.0413 0.016583,-0.091 0.04973,-0.12401 l 0.2068165,-0.20423 c 0.033159,-0.0331 0.082891,-0.0496 0.1243339,-0.0496 0.04973,0 0.091182,0.0165 0.1243345,0.0496 l 0.5531188,0.55516 0.5675366,-0.55516 c 0.03316,-0.0331 0.08289,-0.0496 0.124336,-0.0496 0.04973,0 0.09118,0.0165 0.1243344,0.0496 l 0.192397,0.21945 c 0.03087,0.0352 0.04973,0.0827 0.04973,0.12401 0,0.0413 -0.01658,0.0909 -0.04973,0.12401 l -0.5550319,0.54126 0.5550319,0.55447 c 0.03316,0.0331 0.04973,0.0827 0.04973,0.12401 0,0.0413 -0.01658,0.0909 -0.04973,0.12401 z" class="st2"/><circle id="path817" cx="9.26" cy="293.56" r="2.381" style="opacity:1;fill:#1b1b1b;fill-opacity:1;stroke:none;stroke-width:.31562683;stroke-opacity:1"/></g></svg>